{"title":"Players (2012) Hindi Xvid DVDScr Rip AC3 [TDT]","uid":6943231,"size":951720432,"categoryP":"video","categoryS":"movies","magnet":"?xt=urn:btih:309d974a30322ba724bedb678d2667d81c3a0be3&amp;dn=Players+%282012%29+Hindi+Xvid+DVDScr+Rip+AC3+%5BTDT%5D&amp;tr=udp%3A%2F%2Ftracker.openbittorrent.com%3A80&amp;tr=udp%3A%2F%2Fopen.demonii.com%3A1337&amp;tr=udp%3A%2F%2Ftracker.coppersurfer.tk%3A6969&amp;tr=udp%3A%2F%2Fexodus.desync.com%3A6969","seeders":0,"leechers":1,"uploader":"amanrulz","files":3,"time":1326119226,"description":"mastitorrents.com\n  &lt;a href=&quot;\nhttp://mastitorrents.com/forums/index.php&quot; rel=&quot;nofollow&quot; target=&quot;_NEW&quot;&gt;\nhttp://mastitorrents.com/forums/index.php&lt;/a&gt;\n\nGeneral\nComplete name : Players (2012) - Xvid - DVDScr Rip - AC3 - [TDT].avi\nIMDB : http://www.imdb.com/title/tt1784589/\nFormat : AVI\nFormat/Info : Audio Video Interleave\nFile size : 895 MiB\nDuration : 2h 40mn\nOverall bit rate : 778 Kbps\nWriting application : VirtualDubMod 1.5.10.3 | VirtualDub-Fr.org || (build 2550/release)\nWriting library : VirtualDubMod build 2550/release\nSource : DvDScr @ Team ICTV .. Thnx A LOT\nRipper : KINGFISHER [~TDT~].\n\nVideo\nID : 0\nFormat : MPEG-4 Visual\nFormat profile : Advanced Simple@L5\nFormat settings, BVOP : 1\nFormat settings, QPel : No\nFormat settings, GMC : No warppoints\nFormat settings, Matrix : Default (H.263)\nMuxing mode : Packed bitstream\nCodec ID : XVID\nCodec ID/Hint : XviD\nDuration : 2h 40mn\nBit rate : 673 Kbps\nWidth : 672 pixels\nHeight : 256 pixels\nDisplay aspect ratio : 2.625\nFrame rate : 23.976 fps\nColor space : YUV\nChroma subsampling : 4:2:0\nBit depth : 8 bits\nScan type : Progressive\nCompression mode : Lossy\nBits/(Pixel*Frame) : 0.163\nStream size : 774 MiB (86%)\nWriting library : XviD 1.2.1 (UTC 2008-12-04)\n\nAudio\nID : 1\nFormat : AC-3\nFormat/Info : Audio Coding 3\nMode extension : CM (complete main)\nCodec ID : 2000\nDuration : 2h 40mn\nBit rate mode : Constant\nBit rate : 96.0 Kbps\nChannel(s) : 2 channels\nChannel positions : Front: L R\nSampling rate : 48.0 KHz\nBit depth : 16 bits\nCompression mode : Lossy\nStream size : 110 MiB (12%)\nAlignment : Aligned on interleaves\nInterleave, duration : 42 ms (1.00 video frame)\nInterleave, preload duration : 512 ms\n","torrent":{"xt":"urn:btih:309d974a30322ba724bedb678d2667d81c3a0be3","amp;dn":"Players+%282012%29+Hindi+Xvid+DVDScr+Rip+AC3+%5BTDT%5D","amp;tr":["udp%3A%2F%2Ftracker.openbittorrent.com%3A80","udp%3A%2F%2Fopen.demonii.com%3A1337","udp%3A%2F%2Ftracker.coppersurfer.tk%3A6969","udp%3A%2F%2Fexodus.desync.com%3A6969"],"infoHash":"309d974a30322ba724bedb678d2667d81c3a0be3","infoHashBuffer":{"type":"Buffer","data":[48,157,151,74,48,50,43,167,36,190,219,103,141,38,103,216,28,58,11,227]},"announce":[],"urlList":[]}}